<svg xmlns="http://www.w3.org/2000/svg" viewBox="0 0 800 500" width="800" height="500">
    
    <text x="40" y="40" font-size="24px">🔎 다음과 같이 덧셈을 하시오.</text>
    
    <!-- 문제 전체 그룹 -->
    <g>
        <!-- 2+1 -->
        <g>
            <circle cx="40" cy="120" r="5" fill="orange"></circle>
            <circle cx="64" cy="120" r="5" fill="orange"></circle>
            <rect x="24" y="104" rx="15" ry="15" width="56" height="32" style="fill: none; stroke: skyblue; stroke-width: 2px; "></rect>
            
            <path d="M 64 104 Q 92 64 120 104" stroke="skyblue" fill="none" stroke-width="2" stroke-linecap= "round"></path>
            
            <circle cx="120" cy="120" r="5" fill="blue"></circle>
            <rect x="104" y="104" rx="15" ry="15" width="32" height="32" style="fill: none; stroke: skyblue; stroke-width: 2px; "></rect>
            
            <text x="160" y="132" fill="black" font-size="32">2 + 1 = </text>
            <line x1="260" y1="136" x2="320" y2="136" style="stroke: skyblue; stroke-width: 2"></line>
        </g>

        <!-- 7+1 -->
        <g>
            <circle cx="384" cy="120" r="5" fill="orange"></circle>
            <circle cx="408" cy="120" r="5" fill="orange"></circle>
            <circle cx="432" cy="120" r="5" fill="orange"></circle>
            <circle cx="456" cy="120" r="5" fill="orange"></circle>
            <circle cx="480" cy="120" r="5" fill="orange"></circle>
            <circle cx="504" cy="120" r="5" fill="orange"></circle>
            <circle cx="528" cy="120" r="5" fill="orange"></circle>
            <rect x="368" y="104" rx="15" ry="15" width="176" height="32" style="fill: none; stroke: skyblue; stroke-width: 2px; "></rect>
            
            <path d="M 528 104 Q 556 64 584 104" stroke="skyblue" fill="none" stroke-width="2" stroke-linecap= "round"></path>
            
            <circle cx="584" cy="120" r="5" fill="blue"></circle>
            <rect x="568" y="104" rx="15" ry="15" width="32" height="32" style="fill: none; stroke: skyblue; stroke-width: 2px; "></rect>
            
            <text x="628" y="132" fill="black" font-size="32">7 + 1 = </text>
            <line x1="728" y1="136" x2="828" y2="136" style="stroke: skyblue; stroke-width: 2"></line>
        </g>

            
        <!-- 4+1 -->
        <g>
            <circle cx="40" cy="200" r="5" fill="orange"></circle>
            <circle cx="64" cy="200" r="5" fill="orange"></circle>
            <circle cx="88" cy="200" r="5" fill="orange"></circle>
            <circle cx="112" cy="200" r="5" fill="orange"></circle>
            <rect x="24" y="184" rx="15" ry="15" width="104" height="32" style="fill: none; stroke: skyblue; stroke-width: 2px; "></rect>
            
            <path d="M 112 184 Q 140 152 160 184" stroke="skyblue" fill="none" stroke-width="2" stroke-linecap= "round"></path>
            
            <circle cx="168" cy="200" r="5" fill="blue"></circle>
            <rect x="152" y="184" rx="15" ry="15" width="32" height="32" style="fill: none; stroke: skyblue; stroke-width: 2px; "></rect>
            
            <text x="208" y="212" fill="black" font-size="32">4 + 1 = </text>
            <line x1="308" y1="216" x2="368" y2="216" style="stroke: skyblue; stroke-width: 2"></line>
        </g>
        <!-- 5+1 -->
        <g>
            <circle cx="432" cy="200" r="5" fill="orange"></circle>
            <circle cx="456" cy="200" r="5" fill="orange"></circle>
            <circle cx="480" cy="200" r="5" fill="orange"></circle>
            <circle cx="504" cy="200" r="5" fill="orange"></circle>
            <circle cx="528" cy="200" r="5" fill="orange"></circle>
            <rect x="416" y="184" rx="15" ry="15" width="128" height="32" style="fill: none; stroke: skyblue; stroke-width: 2px; "></rect>
            
            <path d="M 528 184 Q 556 144 584 184" stroke="skyblue" fill="none" stroke-width="2" stroke-linecap= "round"></path>
            
            <circle cx="584" cy="200" r="5" fill="blue"></circle>
            <rect x="568" y="184" rx="15" ry="15" width="32" height="32" style="fill: none; stroke: skyblue; stroke-width: 2px; "></rect>
            
            <text x="628" y="212" fill="black" font-size="32">5 + 1 = </text>
            <line x1="728" y1="216" x2="828" y2="216" style="stroke: skyblue; stroke-width: 2"></line>
        </g>

        <!-- 6+1 -->
        <g>
            <circle cx="40" cy="280" r="5" fill="orange"></circle>
            <circle cx="64" cy="280" r="5" fill="orange"></circle>
            <circle cx="88" cy="280" r="5" fill="orange"></circle>
            <circle cx="112" cy="280" r="5" fill="orange"></circle>
            <circle cx="136" cy="280" r="5" fill="orange"></circle>
            <circle cx="160" cy="280" r="5" fill="orange"></circle>
            <rect x="24" y="264" rx="15" ry="15" width="152" height="32" style="fill: none; stroke: skyblue; stroke-width: 2px; "></rect>
            
            <path d="M 160 264 Q 188 232 216 264" stroke="skyblue" fill="none" stroke-width="2" stroke-linecap= "round"></path>
            
            <circle cx="216" cy="280" r="5" fill="blue"></circle>
            <rect x="200" y="264" rx="15" ry="15" width="32" height="32" style="fill: none; stroke: skyblue; stroke-width: 2px; "></rect>
            
            <text x="256" y="292" fill="black" font-size="32">6 + 1 = </text>
            <line x1="356" y1="296" x2="416" y2="296" style="stroke: skyblue; stroke-width: 2"></line>
        </g>
        <!-- 3+1 -->
        <g>
            <circle cx="480" cy="280" r="5" fill="orange"></circle>
            <circle cx="504" cy="280" r="5" fill="orange"></circle>
            <circle cx="528" cy="280" r="5" fill="orange"></circle>
            <rect x="464" y="264" rx="15" ry="15" width="80" height="32" style="fill: none; stroke: skyblue; stroke-width: 2px; "></rect>
            
            <path d="M 528 264 Q 556 224 584 264" stroke="skyblue" fill="none" stroke-width="2" stroke-linecap= "round"></path>
            
            <circle cx="584" cy="280" r="5" fill="blue"></circle>
            <rect x="568" y="264" rx="15" ry="15" width="32" height="32" style="fill: none; stroke: skyblue; stroke-width: 2px; "></rect>
            
            <text x="628" y="292" fill="black" font-size="32">3 + 1 = </text>
            <line x1="728" y1="296" x2="828" y2="296" style="stroke: skyblue; stroke-width: 2"></line>
        </g>



        <!-- 8+1 -->
        <g>
            <circle cx="40" cy="360" r="5" fill="orange"></circle>
            <circle cx="64" cy="360" r="5" fill="orange"></circle>
            <circle cx="88" cy="360" r="5" fill="orange"></circle>
            <circle cx="112" cy="360" r="5" fill="orange"></circle>    
            <circle cx="136" cy="360" r="5" fill="orange"></circle>
            <circle cx="160" cy="360" r="5" fill="orange"></circle>
            <circle cx="184" cy="360" r="5" fill="orange"></circle>        
            <circle cx="208" cy="360" r="5" fill="orange"></circle>
            <rect x="24" y="344" rx="15" ry="15" width="200" height="32" style="fill: none; stroke: skyblue; stroke-width: 2px; "></rect>
            
            <path d="M 208 344 Q 232 300 264 344" stroke="skyblue" fill="none" stroke-width="2" stroke-linecap= "round"></path>
            
            <circle cx="264" cy="360" r="5" fill="blue"></circle>
            <rect x="248" y="344" rx="15" ry="15" width="32" height="32" style="fill: none; stroke: skyblue; stroke-width: 2px; "></rect>
            
            <text x="304" y="372" fill="black" font-size="32">8 + 1 = </text>
            <line x1="404" y1="376" x2="464" y2="376" style="stroke: skyblue; stroke-width: 2"></line>
        </g>
        <!-- 1+1 -->
        <g>
            <circle cx="528" cy="360" r="5" fill="orange"></circle>
            <rect x="512" y="344" rx="15" ry="15" width="32" height="32" style="fill: none; stroke: skyblue; stroke-width: 2px; "></rect>
            
            <path d="M 528 344 Q 556 304 584 344" stroke="skyblue" fill="none" stroke-width="2" stroke-linecap= "round"></path>
            
            <circle cx="584" cy="360" r="5" fill="blue"></circle>
            <rect x="568" y="344" rx="15" ry="15" width="32" height="32" style="fill: none; stroke: skyblue; stroke-width: 2px; "></rect>
            
            <text x="628" y="372" fill="black" font-size="32">1 + 1 = </text>
            <!-- <text x="652" y="372" fill="black" font-size="32"> + </text>
            <text x="652" y="372" fill="black" font-size="32">1</text>
            <text x="664" y="372" fill="black" font-size="32"> = </text> -->
            <line x1="728" y1="376" x2="828" y2="376" style="stroke: skyblue; stroke-width: 2"></line>
        </g>




        
    </g>
    <!-- <rect x="10" y="10" width="100" height="100" fill="red"></rect> -->
</svg>